<svg width="28" height="29" viewBox="0 0 28 29" fill="none" xmlns="http://www.w3.org/2000/svg">
<g clip-path="url(#clip0_902_158)">
<path d="M14 7.73584C15.295 7.73584 16.3333 6.68584 16.3333 5.40251C16.3333 4.95917 16.2167 4.55084 15.995 4.20084L14 0.73584L12.005 4.20084C11.7833 4.55084 11.6667 4.95917 11.6667 5.40251C11.6667 6.68584 12.7167 7.73584 14 7.73584ZM19.3667 19.3908L18.1183 18.1425L16.8583 19.3908C15.3417 20.9075 12.6817 20.9192 11.1533 19.3908L9.905 18.1425L8.63333 19.3908C7.875 20.1492 6.86 20.5692 5.78667 20.5692C4.935 20.5692 4.15333 20.3008 3.5 19.8575V25.2358C3.5 25.8775 4.025 26.4025 4.66667 26.4025H23.3333C23.975 26.4025 24.5 25.8775 24.5 25.2358V19.8575C23.8467 20.3008 23.065 20.5692 22.2133 20.5692C21.14 20.5692 20.125 20.1492 19.3667 19.3908ZM21 11.2358H15.1667V8.90251H12.8333V11.2358H7C5.06333 11.2358 3.5 12.7992 3.5 14.7358V16.5325C3.5 17.7925 4.52667 18.8192 5.78667 18.8192C6.39333 18.8192 6.97667 18.5858 7.39667 18.1542L9.89333 15.6692L12.3783 18.1542C13.2417 19.0175 14.7467 19.0175 15.61 18.1542L18.1067 15.6692L20.5917 18.1542C21.0233 18.5858 21.595 18.8192 22.2017 18.8192C23.4617 18.8192 24.4883 17.7925 24.4883 16.5325V14.7358C24.5 12.7992 22.9367 11.2358 21 11.2358Z" fill="#838790"/>
</g>
<defs>
<clipPath id="clip0_902_158">
<rect width="28" height="28" fill="white" transform="translate(0 0.73584)"/>
</clipPath>
</defs>
</svg>
