<svg width="28" height="29" viewBox="0 0 28 29" fill="none" xmlns="http://www.w3.org/2000/svg">
<g clip-path="url(#clip0_902_172)">
<path d="M10.6646 24.0692C11.2169 24.0692 11.6646 23.6215 11.6646 23.0692V17.0692H16.3313V23.0692C16.3313 23.6215 16.779 24.0692 17.3313 24.0692H21.1646C21.7169 24.0692 22.1646 23.6215 22.1646 23.0692V14.7358H24.1011C24.6509 14.7358 24.9112 14.0577 24.5024 13.6899L14.6669 4.83791C14.2866 4.49563 13.7093 4.49563 13.329 4.83791L3.4935 13.6899C3.08476 14.0577 3.34498 14.7358 3.89487 14.7358H5.8313V23.0692C5.8313 23.6215 6.27901 24.0692 6.8313 24.0692H10.6646Z" fill="#838790"/>
</g>
<defs>
<clipPath id="clip0_902_172">
<rect width="28" height="28" fill="white" transform="translate(0 0.73584)"/>
</clipPath>
</defs>
</svg>
